<svg width="711" height="800" viewBox="0 0 711 800" fill="none" xmlns="http://www.w3.org/2000/svg">
<g opacity="0.8" clip-path="url(#clip0_1242_24970)">
<path d="M426.606 66.4967C426.606 27.2302 458.438 -4.60156 497.704 -4.60156C536.971 -4.60156 568.803 27.2302 568.803 66.4967C568.803 105.763 536.971 137.595 497.704 137.595C458.438 137.595 426.606 105.763 426.606 66.4967Z" fill="#F15759"/>
<path d="M497.704 98.2396C515.231 98.2396 529.447 84.0234 529.447 66.4963C529.447 48.9692 515.231 34.7529 497.704 34.7529C480.177 34.7529 465.961 48.9692 465.961 66.4963C465.961 84.0234 480.177 98.2396 497.704 98.2396Z" fill="#FBD15B"/>
<path d="M284.409 -4.60156H426.605V137.595H284.409V-4.60156Z" fill="#4E3FFF"/>
<path d="M568.803 137.595H711C711 59.0558 647.343 -4.60156 568.803 -4.60156V137.595Z" fill="#E9E5D9"/>
<path d="M284.393 -4.60156H142.196C142.196 73.8864 205.922 137.595 284.393 137.595V-4.60156Z" fill="#F15759"/>
<path d="M142.197 -4.60156H0.000717163V137.595C78.4887 137.595 142.197 73.8864 142.197 -4.60156Z" fill="#E9E5D9"/>
<path d="M568.803 279.793C647.343 279.793 711 216.136 711 137.597H568.803V279.793Z" fill="#F15759"/>
<path d="M568.804 218.457C613.466 218.457 649.664 182.259 649.664 137.597H568.804V218.457Z" fill="#FBD15B"/>
<path d="M426.606 137.597H568.803V279.793H426.606V137.597Z" fill="#4E3FFF"/>
<path d="M467.276 178.266H528.135V239.124H467.276V178.266Z" fill="#E9E5D9"/>
<path d="M284.409 137.597H426.605V279.793H284.409V137.597Z" fill="#E9E5D9"/>
<path d="M284.393 137.597V279.793H426.59C426.59 201.305 362.864 137.597 284.393 137.597Z" fill="#F15759"/>
<path d="M0.000717163 137.597V279.793H142.197C142.197 201.305 78.4717 137.597 0.000717163 137.597Z" fill="#F15759"/>
<path d="M284.393 137.597C205.905 137.597 142.196 201.322 142.196 279.793H284.393V137.597Z" fill="#FBD15B"/>
<path d="M426.606 279.791H568.803V421.988H426.606V279.791Z" fill="#FBD15B"/>
<path d="M284.409 279.791H426.605V421.988H284.409V279.791Z" fill="#F9FBFC"/>
<path d="M568.803 350.889C568.803 311.623 600.635 279.791 639.902 279.791C679.168 279.791 711 311.623 711 350.889C711 390.156 679.168 421.988 639.902 421.988C600.635 421.988 568.803 390.156 568.803 350.889Z" fill="#4E3FFF"/>
<path d="M639.903 382.617C657.43 382.617 671.629 368.417 671.629 350.89C671.629 333.363 657.43 319.164 639.903 319.164C622.376 319.164 608.176 333.363 608.176 350.89C608.176 368.417 622.376 382.617 639.903 382.617Z" fill="#F15759"/>
<path d="M142.196 279.791H284.393V421.988H142.196V279.791Z" fill="#F9FBFC"/>
<path d="M426.605 279.791H284.409V421.988C362.897 421.988 426.605 358.262 426.605 279.791Z" fill="#4E3FFF"/>
<path d="M284.393 279.791H142.196C142.196 358.279 205.922 421.988 284.393 421.988V279.791Z" fill="#F15759"/>
<path d="M284.393 279.792H354.809C354.809 240.915 323.287 209.376 284.393 209.376V279.792Z" fill="#F9FBFC"/>
<path d="M284.393 209.393C245.533 209.393 213.977 240.948 213.977 279.808H284.393V209.393Z" fill="#F15759"/>
<path d="M284.393 350.207C323.27 350.207 354.809 318.685 354.809 279.791H284.393V350.207Z" fill="#FBD15B"/>
<path d="M284.393 350.207V279.791H213.977C213.977 318.668 245.498 350.207 284.393 350.207Z" fill="#4E3FFF"/>
<path d="M0.000717163 422.005H142.197V279.809C63.6581 279.809 0.000717163 343.466 0.000717163 422.005Z" fill="#4E3FFF"/>
<path d="M568.803 564.202C647.343 564.202 711 500.528 711 422.006H568.803V564.202Z" fill="#E9E5D9"/>
<path d="M426.606 422.006H568.803V564.202H426.606V422.006Z" fill="#4E3FFF"/>
<path d="M426.606 564.202H568.803L426.606 422.006V564.202Z" fill="#4E3FFF"/>
<path d="M426.605 422.006C348.117 422.006 284.409 485.732 284.409 564.202H426.605V422.006Z" fill="#F15759"/>
<path d="M0.000717163 564.202H142.197V422.006C63.6581 422.006 0.000717163 485.663 0.000717163 564.202Z" fill="#FBD15B"/>
<path d="M142.196 422.006V564.202H284.393C284.393 485.714 220.667 422.006 142.196 422.006Z" fill="#4E3FFF"/>
<path d="M142.196 422.006V564.202H284.393C284.393 485.714 220.667 422.006 142.196 422.006Z" fill="#4E3FFF"/>
<path d="M52.8892 564.204H142.197V474.896C92.8756 474.896 52.8892 514.882 52.8892 564.204Z" fill="#E9E5D9"/>
<path d="M142.196 474.878V564.186H231.504C231.504 514.898 191.483 474.878 142.196 474.878Z" fill="#F15759"/>
<path d="M568.803 706.399C647.343 706.399 711 770.057 711 848.596H568.803V706.399Z" fill="#F15759"/>
<path d="M568.803 706.399V848.596H426.606C426.606 770.057 490.264 706.399 568.803 706.399Z" fill="#FBD15B"/>
<path d="M568.804 766.422C614.184 766.422 650.979 803.217 650.979 848.596H568.804V766.422Z" fill="#E9E5D9"/>
<path d="M568.803 766.422V848.596H486.628C486.628 803.217 523.423 766.422 568.803 766.422Z" fill="#F9FBFC"/>
<path d="M426.605 706.399C426.605 784.939 362.948 848.596 284.409 848.596C284.409 770.057 348.066 706.399 426.605 706.399Z" fill="#4E3FFF"/>
<path d="M0.000717163 706.399H142.197V848.596H0.000717163V706.399Z" fill="#4E3FFF"/>
<path d="M142.196 706.399C220.735 706.399 284.393 770.057 284.393 848.596H142.196V706.399Z" fill="#F15759"/>
<path d="M568.803 564.203C568.803 642.742 505.145 706.4 426.606 706.4C426.606 627.86 490.264 564.203 568.803 564.203Z" fill="#F15759"/>
<path d="M284.391 564.203C362.931 564.203 426.588 627.86 426.588 706.4C348.049 706.4 284.391 642.742 284.391 564.203Z" fill="#FBD15B"/>
<path d="M142.196 564.203H284.393V706.4H142.196V564.203Z" fill="#F9FBFC"/>
<path d="M177.746 564.203C197.372 564.203 213.295 580.126 213.295 599.752C213.295 619.379 197.372 635.301 177.746 635.301C158.12 635.301 142.197 619.379 142.197 599.752C142.197 580.126 158.12 564.203 177.746 564.203Z" fill="#FBD15B"/>
<path d="M177.745 591.339C182.387 591.339 186.158 595.111 186.158 599.753C186.158 604.395 182.387 608.166 177.745 608.166C173.102 608.166 169.331 604.395 169.331 599.753C169.331 595.111 173.102 591.339 177.745 591.339Z" fill="#F9FBFC"/>
<path d="M248.843 564.203C268.47 564.203 284.393 580.126 284.393 599.752C284.393 619.379 268.47 635.301 248.843 635.301C229.217 635.301 213.294 619.379 213.294 599.752C213.294 580.126 229.217 564.203 248.843 564.203Z" fill="#E9E5D9"/>
<path d="M248.842 591.339C253.484 591.339 257.256 595.111 257.256 599.753C257.256 604.395 253.484 608.166 248.842 608.166C244.2 608.166 240.428 604.395 240.428 599.753C240.428 595.111 244.2 591.339 248.842 591.339Z" fill="#4E3FFF"/>
<path d="M177.746 635.302C197.372 635.302 213.295 651.225 213.295 670.851C213.295 690.477 197.372 706.4 177.746 706.4C158.12 706.4 142.197 690.477 142.197 670.851C142.197 651.225 158.12 635.302 177.746 635.302Z" fill="#4E3FFF"/>
<path d="M177.745 662.437C182.387 662.437 186.158 666.208 186.158 670.85C186.158 675.492 182.387 679.264 177.745 679.264C173.102 679.264 169.331 675.492 169.331 670.85C169.331 666.208 173.102 662.437 177.745 662.437Z" fill="#FBD15B"/>
<path d="M213.294 670.851C213.294 651.218 229.21 635.302 248.843 635.302C268.477 635.302 284.393 651.218 284.393 670.851C284.393 690.484 268.477 706.4 248.843 706.4C229.21 706.4 213.294 690.484 213.294 670.851Z" fill="#F15759"/>
<path d="M248.842 662.437C253.484 662.437 257.256 666.208 257.256 670.85C257.256 675.492 253.484 679.264 248.842 679.264C244.2 679.264 240.428 675.492 240.428 670.85C240.428 666.208 244.2 662.437 248.842 662.437Z" fill="#E9E5D9"/>
<path d="M-0.00123596 564.203H142.195V706.4H-0.00123596V564.203Z" fill="#F15759"/>
<path d="M40.8203 605.01H101.389V665.578H40.8203V605.01Z" fill="#4E3FFF"/>
<path d="M122.654 757.479C120.844 757.479 119.07 756.745 117.79 755.465C116.51 754.185 115.776 752.41 115.776 750.601C115.776 748.792 116.51 747.017 117.79 745.737C119.07 744.457 120.844 743.724 122.654 743.724C124.463 743.724 126.237 744.457 127.517 745.737C128.797 747.017 129.531 748.792 129.531 750.601C129.531 752.41 128.797 754.185 127.517 755.465C126.237 756.745 124.463 757.479 122.654 757.479Z" fill="#FBD15B"/>
<path d="M51.6403 757.48H51.6062C47.8004 757.48 44.7114 754.391 44.7114 750.585C44.7114 746.779 47.8004 743.69 51.6062 743.69H51.6403C55.4461 743.69 58.5352 746.779 58.5352 750.585C58.5352 754.391 55.4461 757.48 51.6403 757.48Z" fill="#FBD15B"/>
<path d="M87.156 757.48H87.1219C83.3161 757.48 80.227 754.391 80.227 750.585C80.227 746.779 83.3161 743.69 87.1219 743.69H87.156C90.9618 743.69 94.0508 746.779 94.0508 750.585C94.0508 754.391 90.9618 757.48 87.156 757.48Z" fill="#FBD15B"/>
<path d="M16.1086 757.479C14.2996 757.479 12.5247 756.745 11.2447 755.465C9.96477 754.185 9.23088 752.41 9.23088 750.601C9.23088 748.792 9.96477 747.017 11.2447 745.737C12.5247 744.457 14.2996 743.724 16.1086 743.724C17.9176 743.724 19.6925 744.457 20.9725 745.737C22.2525 747.017 22.9863 748.792 22.9863 750.601C22.9863 752.41 22.2525 754.185 20.9725 755.465C19.6925 756.745 17.9176 757.479 16.1086 757.479Z" fill="#FBD15B"/>
<path d="M122.654 729.183C120.844 729.183 119.07 728.449 117.79 727.169C116.51 725.889 115.776 724.114 115.776 722.305C115.776 720.496 116.51 718.722 117.79 717.442C119.07 716.162 120.844 715.428 122.654 715.428C124.463 715.428 126.237 716.162 127.517 717.442C128.797 718.722 129.531 720.496 129.531 722.305C129.531 724.114 128.797 725.889 127.517 727.169C126.237 728.449 124.463 729.183 122.654 729.183Z" fill="#FBD15B"/>
<path d="M51.6403 729.184H51.6062C47.8004 729.184 44.7114 726.095 44.7114 722.289C44.7114 718.484 47.8004 715.395 51.6062 715.395H51.6403C55.4461 715.395 58.5352 718.484 58.5352 722.289C58.5352 726.095 55.4461 729.184 51.6403 729.184Z" fill="#FBD15B"/>
<path d="M87.156 729.184H87.1219C83.3161 729.184 80.227 726.095 80.227 722.289C80.227 718.484 83.3161 715.395 87.1219 715.395H87.156C90.9618 715.395 94.0508 718.484 94.0508 722.289C94.0508 726.095 90.9618 729.184 87.156 729.184Z" fill="#FBD15B"/>
<path d="M16.1086 729.183C14.2996 729.183 12.5247 728.449 11.2447 727.169C9.96477 725.889 9.23088 724.114 9.23088 722.305C9.23088 720.496 9.96477 718.722 11.2447 717.442C12.5247 716.162 14.2996 715.428 16.1086 715.428C17.9176 715.428 19.6925 716.162 20.9725 717.442C22.2525 718.722 22.9863 720.496 22.9863 722.305C22.9863 724.114 22.2525 725.889 20.9725 727.169C19.6925 728.449 17.9176 729.183 16.1086 729.183Z" fill="#FBD15B"/>
<path d="M122.654 785.776C120.844 785.776 119.07 785.042 117.79 783.762C116.51 782.482 115.776 780.707 115.776 778.898C115.776 777.089 116.51 775.314 117.79 774.034C119.07 772.754 120.844 772.021 122.654 772.021C124.463 772.021 126.237 772.754 127.517 774.034C128.797 775.314 129.531 777.089 129.531 778.898C129.531 780.707 128.797 782.482 127.517 783.762C126.237 785.042 124.463 785.776 122.654 785.776Z" fill="#FBD15B"/>
<path d="M51.6403 785.777H51.6062C47.8004 785.777 44.7114 782.688 44.7114 778.882C44.7114 775.076 47.8004 771.987 51.6062 771.987H51.6403C55.4461 771.987 58.5352 775.076 58.5352 778.882C58.5352 782.688 55.4461 785.777 51.6403 785.777Z" fill="#FBD15B"/>
<path d="M87.156 785.777H87.1219C83.3161 785.777 80.227 782.688 80.227 778.882C80.227 775.076 83.3161 771.987 87.1219 771.987H87.156C90.9618 771.987 94.0508 775.076 94.0508 778.882C94.0508 782.688 90.9618 785.777 87.156 785.777Z" fill="#FBD15B"/>
<path d="M16.1086 785.776C14.2996 785.776 12.5247 785.042 11.2447 783.762C9.96477 782.482 9.23088 780.707 9.23088 778.898C9.23088 777.089 9.96477 775.314 11.2447 774.034C12.5247 772.754 14.2996 772.021 16.1086 772.021C17.9176 772.021 19.6925 772.754 20.9725 774.034C22.2525 775.314 22.9863 777.089 22.9863 778.898C22.9863 780.707 22.2525 782.482 20.9725 783.762C19.6925 785.042 17.9176 785.776 16.1086 785.776Z" fill="#FBD15B"/>
<path d="M551.071 330.993C549.262 330.993 547.488 330.259 546.208 328.979C544.928 327.699 544.194 325.924 544.194 324.115C544.194 322.306 544.928 320.531 546.208 319.251C547.488 317.971 549.262 317.237 551.071 317.237C552.881 317.237 554.655 317.971 555.935 319.251C557.215 320.531 557.949 322.306 557.949 324.115C557.949 325.924 557.215 327.699 555.935 328.979C554.655 330.259 552.881 330.993 551.071 330.993Z" fill="#F9FBFC"/>
<path d="M480.058 330.993H480.024C476.218 330.993 473.129 327.904 473.129 324.098C473.129 320.292 476.218 317.203 480.024 317.203H480.058C483.864 317.203 486.953 320.292 486.953 324.098C486.953 327.904 483.864 330.993 480.058 330.993Z" fill="#F9FBFC"/>
<path d="M515.574 330.993H515.54C511.734 330.993 508.645 327.904 508.645 324.098C508.645 320.292 511.734 317.203 515.54 317.203H515.574C519.38 317.203 522.469 320.292 522.469 324.098C522.469 327.904 519.38 330.993 515.574 330.993Z" fill="#F9FBFC"/>
<path d="M444.511 330.993C442.702 330.993 440.927 330.259 439.647 328.979C438.367 327.699 437.633 325.924 437.633 324.115C437.633 322.306 438.367 320.531 439.647 319.251C440.927 317.971 442.702 317.237 444.511 317.237C446.32 317.237 448.095 317.971 449.375 319.251C450.655 320.531 451.389 322.306 451.389 324.115C451.389 325.924 450.655 327.699 449.375 328.979C448.095 330.259 446.32 330.993 444.511 330.993Z" fill="#F9FBFC"/>
<path d="M551.071 302.697C549.262 302.697 547.488 301.963 546.208 300.683C544.928 299.403 544.194 297.628 544.194 295.819C544.194 294.01 544.928 292.235 546.208 290.955C547.488 289.675 549.262 288.941 551.071 288.941C552.881 288.941 554.655 289.675 555.935 290.955C557.215 292.235 557.949 294.01 557.949 295.819C557.949 297.628 557.215 299.403 555.935 300.683C554.655 301.963 552.881 302.697 551.071 302.697Z" fill="#F9FBFC"/>
<path d="M480.058 302.697H480.024C476.218 302.697 473.129 299.608 473.129 295.802C473.129 291.996 476.218 288.907 480.024 288.907H480.058C483.864 288.907 486.953 291.996 486.953 295.802C486.953 299.608 483.864 302.697 480.058 302.697Z" fill="#F9FBFC"/>
<path d="M515.574 302.697H515.54C511.734 302.697 508.645 299.608 508.645 295.802C508.645 291.996 511.734 288.907 515.54 288.907H515.574C519.38 288.907 522.469 291.996 522.469 295.802C522.469 299.608 519.38 302.697 515.574 302.697Z" fill="#F9FBFC"/>
<path d="M444.511 302.697C442.702 302.697 440.927 301.963 439.647 300.683C438.367 299.403 437.633 297.628 437.633 295.819C437.633 294.01 438.367 292.235 439.647 290.955C440.927 289.675 442.702 288.941 444.511 288.941C446.32 288.941 448.095 289.675 449.375 290.955C450.655 292.235 451.389 294.01 451.389 295.819C451.389 297.628 450.655 299.403 449.375 300.683C448.095 301.963 446.32 302.697 444.511 302.697Z" fill="#F9FBFC"/>
<path d="M551.071 359.289C549.262 359.289 547.488 358.555 546.208 357.275C544.928 355.995 544.194 354.22 544.194 352.411C544.194 350.602 544.928 348.827 546.208 347.547C547.488 346.267 549.262 345.533 551.071 345.533C552.881 345.533 554.655 346.267 555.935 347.547C557.215 348.827 557.949 350.602 557.949 352.411C557.949 354.22 557.215 355.995 555.935 357.275C554.655 358.555 552.881 359.289 551.071 359.289Z" fill="#F9FBFC"/>
<path d="M480.058 359.29H480.024C476.218 359.29 473.129 356.201 473.129 352.395C473.129 348.589 476.218 345.5 480.024 345.5H480.058C483.864 345.5 486.953 348.589 486.953 352.395C486.953 356.201 483.864 359.29 480.058 359.29Z" fill="#F9FBFC"/>
<path d="M515.574 359.29H515.54C511.734 359.29 508.645 356.201 508.645 352.395C508.645 348.589 511.734 345.5 515.54 345.5H515.574C519.38 345.5 522.469 348.589 522.469 352.395C522.469 356.201 519.38 359.29 515.574 359.29Z" fill="#F9FBFC"/>
<path d="M444.511 359.289C442.702 359.289 440.927 358.555 439.647 357.275C438.367 355.995 437.633 354.22 437.633 352.411C437.633 350.602 438.367 348.827 439.647 347.547C440.927 346.267 442.702 345.533 444.511 345.533C446.32 345.533 448.095 346.267 449.375 347.547C450.655 348.827 451.389 350.602 451.389 352.411C451.389 354.22 450.655 355.995 449.375 357.275C448.095 358.555 446.32 359.289 444.511 359.289Z" fill="#F9FBFC"/>
<path d="M551.071 387.586C549.262 387.586 547.488 386.852 546.208 385.572C544.928 384.292 544.194 382.517 544.194 380.708C544.194 378.899 544.928 377.124 546.208 375.844C547.488 374.564 549.262 373.83 551.071 373.83C552.881 373.83 554.655 374.564 555.935 375.844C557.215 377.124 557.949 378.899 557.949 380.708C557.949 382.517 557.215 384.292 555.935 385.572C554.655 386.852 552.881 387.586 551.071 387.586Z" fill="#F9FBFC"/>
<path d="M480.058 387.585H480.024C476.218 387.585 473.129 384.496 473.129 380.691C473.129 376.885 476.218 373.796 480.024 373.796H480.058C483.864 373.796 486.953 376.885 486.953 380.691C486.953 384.496 483.864 387.585 480.058 387.585Z" fill="#F9FBFC"/>
<path d="M515.574 387.585H515.54C511.734 387.585 508.645 384.496 508.645 380.691C508.645 376.885 511.734 373.796 515.54 373.796H515.574C519.38 373.796 522.469 376.885 522.469 380.691C522.469 384.496 519.38 387.585 515.574 387.585Z" fill="#F9FBFC"/>
<path d="M444.511 387.586C442.702 387.586 440.927 386.852 439.647 385.572C438.367 384.292 437.633 382.517 437.633 380.708C437.633 378.899 438.367 377.124 439.647 375.844C440.927 374.564 442.702 373.83 444.511 373.83C446.32 373.83 448.095 374.564 449.375 375.844C450.655 377.124 451.389 378.899 451.389 380.708C451.389 382.517 450.655 384.292 449.375 385.572C448.095 386.852 446.32 387.586 444.511 387.586Z" fill="#F9FBFC"/>
<path d="M551.071 415.88C549.262 415.88 547.488 415.147 546.208 413.867C544.928 412.587 544.194 410.812 544.194 409.003C544.194 407.194 544.928 405.419 546.208 404.139C547.488 402.859 549.262 402.125 551.071 402.125C552.881 402.125 554.655 402.859 555.935 404.139C557.215 405.419 557.949 407.194 557.949 409.003C557.949 410.812 557.215 412.587 555.935 413.867C554.655 415.147 552.881 415.88 551.071 415.88Z" fill="#F9FBFC"/>
<path d="M480.058 415.88H480.024C476.218 415.88 473.129 412.791 473.129 408.986C473.129 405.18 476.218 402.091 480.024 402.091H480.058C483.864 402.091 486.953 405.18 486.953 408.986C486.953 412.791 483.864 415.88 480.058 415.88Z" fill="#F9FBFC"/>
<path d="M515.574 415.88H515.54C511.734 415.88 508.645 412.791 508.645 408.986C508.645 405.18 511.734 402.091 515.54 402.091H515.574C519.38 402.091 522.469 405.18 522.469 408.986C522.469 412.791 519.38 415.88 515.574 415.88Z" fill="#F9FBFC"/>
<path d="M444.511 415.88C442.702 415.88 440.927 415.147 439.647 413.867C438.367 412.587 437.633 410.812 437.633 409.003C437.633 407.194 438.367 405.419 439.647 404.139C440.927 402.859 442.702 402.125 444.511 402.125C446.32 402.125 448.095 402.859 449.375 404.139C450.655 405.419 451.389 407.194 451.389 409.003C451.389 410.812 450.655 412.587 449.375 413.867C448.095 415.147 446.32 415.88 444.511 415.88Z" fill="#F9FBFC"/>
</g>
<defs>
<clipPath id="clip0_1242_24970">
<rect width="711" height="853.197" fill="white" transform="matrix(-1 0 0 1 711 -4.59961)"/>
</clipPath>
</defs>
</svg>
